<svg xmlns="http://www.w3.org/2000/svg" width="25.09" height="31.122" viewBox="0 0 25.09 31.122">
  <g id="Group_Copy_3" data-name="Group Copy 3" transform="translate(0.15 0.15)">
    <path id="Fill_7" data-name="Fill 7" d="M18.491,30.822H6.3a.736.736,0,0,1-.684-.63L2.123,5.2H1.369A1.386,1.386,0,0,1,0,3.805V1.4A1.386,1.386,0,0,1,1.369,0H23.421A1.386,1.386,0,0,1,24.79,1.4V3.735a1.386,1.386,0,0,1-1.369,1.4h-.754L19.175,30.192A.736.736,0,0,1,18.491,30.822ZM6.026,23.544l.822,5.809H17.942l.754-5.809ZM4.451,11.854,5.89,22.073H18.9l1.507-10.219ZM3.493,5.135l.752,5.319h16.3L21.3,5.135ZM1.369,1.4V3.735H23.49V1.4Z" transform="translate(0 0)" fill="#cf9775" stroke="#cf9775" stroke-miterlimit="10" stroke-width="0.3"/>
  </g>
</svg>
