<svg id="Group_Copy_2" data-name="Group Copy 2" xmlns="http://www.w3.org/2000/svg" width="35.12" height="52.654" viewBox="0 0 35.12 52.654">
  <path id="Fill_7" data-name="Fill 7" d="M26.194,52.654H8.925a1.044,1.044,0,0,1-.97-.893l-4.947-35.4H1.94A1.964,1.964,0,0,1,0,14.378V9.618A1.964,1.964,0,0,1,1.94,7.636H4.948V5.255a.963.963,0,0,1,.776-.991L28.038,0h.194a.929.929,0,0,1,.97.992V7.636h3.978a1.964,1.964,0,0,1,1.94,1.983v4.66a1.965,1.965,0,0,1-1.94,1.984H32.112l-4.947,35.5A1.044,1.044,0,0,1,26.194,52.654ZM8.537,42.34,9.7,50.571H25.418l1.067-8.231ZM6.306,25.781,8.343,40.259H26.777l2.134-14.477ZM4.948,16.262,6.015,23.8h23.09l1.066-7.536ZM1.94,9.618v4.66H33.277V9.618ZM27.358,2.182,6.888,6.049V7.636h20.47Z" transform="translate(0 0)" fill="#cf9775"/>
</svg>
